G75*
%MOIN*%
%OFA0B0*%
%FSLAX25Y25*%
%IPPOS*%
%LPD*%
%AMOC8*
5,1,8,0,0,1.08239X$1,22.5*
%
%ADD10C,0.00000*%
%ADD11C,0.12211*%
%ADD12C,0.06400*%
%ADD13OC8,0.05600*%
%ADD14R,0.02900X0.05400*%
<<<<<<< HEAD
%ADD15R,0.05518X0.06699*%
=======
>>>>>>> origin/master
D10*
X0001000Y0001000D02*
X0001000Y0279711D01*
X0160951Y0279711D01*
X0160951Y0001000D01*
X0001000Y0001000D01*
X0005094Y0011000D02*
X0005096Y0011153D01*
X0005102Y0011307D01*
X0005112Y0011460D01*
X0005126Y0011612D01*
X0005144Y0011765D01*
X0005166Y0011916D01*
X0005191Y0012067D01*
X0005221Y0012218D01*
X0005255Y0012368D01*
X0005292Y0012516D01*
X0005333Y0012664D01*
X0005378Y0012810D01*
X0005427Y0012956D01*
X0005480Y0013100D01*
X0005536Y0013242D01*
X0005596Y0013383D01*
X0005660Y0013523D01*
X0005727Y0013661D01*
X0005798Y0013797D01*
X0005873Y0013931D01*
X0005950Y0014063D01*
X0006032Y0014193D01*
X0006116Y0014321D01*
X0006204Y0014447D01*
X0006295Y0014570D01*
X0006389Y0014691D01*
X0006487Y0014809D01*
X0006587Y0014925D01*
X0006691Y0015038D01*
X0006797Y0015149D01*
X0006906Y0015257D01*
X0007018Y0015362D01*
X0007132Y0015463D01*
X0007250Y0015562D01*
X0007369Y0015658D01*
X0007491Y0015751D01*
X0007616Y0015840D01*
X0007743Y0015927D01*
X0007872Y0016009D01*
X0008003Y0016089D01*
X0008136Y0016165D01*
X0008271Y0016238D01*
X0008408Y0016307D01*
X0008547Y0016372D01*
X0008687Y0016434D01*
X0008829Y0016492D01*
X0008972Y0016547D01*
X0009117Y0016598D01*
X0009263Y0016645D01*
X0009410Y0016688D01*
X0009558Y0016727D01*
X0009707Y0016763D01*
X0009857Y0016794D01*
X0010008Y0016822D01*
X0010159Y0016846D01*
X0010312Y0016866D01*
X0010464Y0016882D01*
X0010617Y0016894D01*
X0010770Y0016902D01*
X0010923Y0016906D01*
X0011077Y0016906D01*
X0011230Y0016902D01*
X0011383Y0016894D01*
X0011536Y0016882D01*
X0011688Y0016866D01*
X0011841Y0016846D01*
X0011992Y0016822D01*
X0012143Y0016794D01*
X0012293Y0016763D01*
X0012442Y0016727D01*
X0012590Y0016688D01*
X0012737Y0016645D01*
X0012883Y0016598D01*
X0013028Y0016547D01*
X0013171Y0016492D01*
X0013313Y0016434D01*
X0013453Y0016372D01*
X0013592Y0016307D01*
X0013729Y0016238D01*
X0013864Y0016165D01*
X0013997Y0016089D01*
X0014128Y0016009D01*
X0014257Y0015927D01*
X0014384Y0015840D01*
X0014509Y0015751D01*
X0014631Y0015658D01*
X0014750Y0015562D01*
X0014868Y0015463D01*
X0014982Y0015362D01*
X0015094Y0015257D01*
X0015203Y0015149D01*
X0015309Y0015038D01*
X0015413Y0014925D01*
X0015513Y0014809D01*
X0015611Y0014691D01*
X0015705Y0014570D01*
X0015796Y0014447D01*
X0015884Y0014321D01*
X0015968Y0014193D01*
X0016050Y0014063D01*
X0016127Y0013931D01*
X0016202Y0013797D01*
X0016273Y0013661D01*
X0016340Y0013523D01*
X0016404Y0013383D01*
X0016464Y0013242D01*
X0016520Y0013100D01*
X0016573Y0012956D01*
X0016622Y0012810D01*
X0016667Y0012664D01*
X0016708Y0012516D01*
X0016745Y0012368D01*
X0016779Y0012218D01*
X0016809Y0012067D01*
X0016834Y0011916D01*
X0016856Y0011765D01*
X0016874Y0011612D01*
X0016888Y0011460D01*
X0016898Y0011307D01*
X0016904Y0011153D01*
X0016906Y0011000D01*
X0016904Y0010847D01*
X0016898Y0010693D01*
X0016888Y0010540D01*
X0016874Y0010388D01*
X0016856Y0010235D01*
X0016834Y0010084D01*
X0016809Y0009933D01*
X0016779Y0009782D01*
X0016745Y0009632D01*
X0016708Y0009484D01*
X0016667Y0009336D01*
X0016622Y0009190D01*
X0016573Y0009044D01*
X0016520Y0008900D01*
X0016464Y0008758D01*
X0016404Y0008617D01*
X0016340Y0008477D01*
X0016273Y0008339D01*
X0016202Y0008203D01*
X0016127Y0008069D01*
X0016050Y0007937D01*
X0015968Y0007807D01*
X0015884Y0007679D01*
X0015796Y0007553D01*
X0015705Y0007430D01*
X0015611Y0007309D01*
X0015513Y0007191D01*
X0015413Y0007075D01*
X0015309Y0006962D01*
X0015203Y0006851D01*
X0015094Y0006743D01*
X0014982Y0006638D01*
X0014868Y0006537D01*
X0014750Y0006438D01*
X0014631Y0006342D01*
X0014509Y0006249D01*
X0014384Y0006160D01*
X0014257Y0006073D01*
X0014128Y0005991D01*
X0013997Y0005911D01*
X0013864Y0005835D01*
X0013729Y0005762D01*
X0013592Y0005693D01*
X0013453Y0005628D01*
X0013313Y0005566D01*
X0013171Y0005508D01*
X0013028Y0005453D01*
X0012883Y0005402D01*
X0012737Y0005355D01*
X0012590Y0005312D01*
X0012442Y0005273D01*
X0012293Y0005237D01*
X0012143Y0005206D01*
X0011992Y0005178D01*
X0011841Y0005154D01*
X0011688Y0005134D01*
X0011536Y0005118D01*
X0011383Y0005106D01*
X0011230Y0005098D01*
X0011077Y0005094D01*
X0010923Y0005094D01*
X0010770Y0005098D01*
X0010617Y0005106D01*
X0010464Y0005118D01*
X0010312Y0005134D01*
X0010159Y0005154D01*
X0010008Y0005178D01*
X0009857Y0005206D01*
X0009707Y0005237D01*
X0009558Y0005273D01*
X0009410Y0005312D01*
X0009263Y0005355D01*
X0009117Y0005402D01*
X0008972Y0005453D01*
X0008829Y0005508D01*
X0008687Y0005566D01*
X0008547Y0005628D01*
X0008408Y0005693D01*
X0008271Y0005762D01*
X0008136Y0005835D01*
X0008003Y0005911D01*
X0007872Y0005991D01*
X0007743Y0006073D01*
X0007616Y0006160D01*
X0007491Y0006249D01*
X0007369Y0006342D01*
X0007250Y0006438D01*
X0007132Y0006537D01*
X0007018Y0006638D01*
X0006906Y0006743D01*
X0006797Y0006851D01*
X0006691Y0006962D01*
X0006587Y0007075D01*
X0006487Y0007191D01*
X0006389Y0007309D01*
X0006295Y0007430D01*
X0006204Y0007553D01*
X0006116Y0007679D01*
X0006032Y0007807D01*
X0005950Y0007937D01*
X0005873Y0008069D01*
X0005798Y0008203D01*
X0005727Y0008339D01*
X0005660Y0008477D01*
X0005596Y0008617D01*
X0005536Y0008758D01*
X0005480Y0008900D01*
X0005427Y0009044D01*
X0005378Y0009190D01*
X0005333Y0009336D01*
X0005292Y0009484D01*
X0005255Y0009632D01*
X0005221Y0009782D01*
X0005191Y0009933D01*
X0005166Y0010084D01*
X0005144Y0010235D01*
X0005126Y0010388D01*
X0005112Y0010540D01*
X0005102Y0010693D01*
X0005096Y0010847D01*
X0005094Y0011000D01*
X0145094Y0011000D02*
X0145096Y0011153D01*
X0145102Y0011307D01*
X0145112Y0011460D01*
X0145126Y0011612D01*
X0145144Y0011765D01*
X0145166Y0011916D01*
X0145191Y0012067D01*
X0145221Y0012218D01*
X0145255Y0012368D01*
X0145292Y0012516D01*
X0145333Y0012664D01*
X0145378Y0012810D01*
X0145427Y0012956D01*
X0145480Y0013100D01*
X0145536Y0013242D01*
X0145596Y0013383D01*
X0145660Y0013523D01*
X0145727Y0013661D01*
X0145798Y0013797D01*
X0145873Y0013931D01*
X0145950Y0014063D01*
X0146032Y0014193D01*
X0146116Y0014321D01*
X0146204Y0014447D01*
X0146295Y0014570D01*
X0146389Y0014691D01*
X0146487Y0014809D01*
X0146587Y0014925D01*
X0146691Y0015038D01*
X0146797Y0015149D01*
X0146906Y0015257D01*
X0147018Y0015362D01*
X0147132Y0015463D01*
X0147250Y0015562D01*
X0147369Y0015658D01*
X0147491Y0015751D01*
X0147616Y0015840D01*
X0147743Y0015927D01*
X0147872Y0016009D01*
X0148003Y0016089D01*
X0148136Y0016165D01*
X0148271Y0016238D01*
X0148408Y0016307D01*
X0148547Y0016372D01*
X0148687Y0016434D01*
X0148829Y0016492D01*
X0148972Y0016547D01*
X0149117Y0016598D01*
X0149263Y0016645D01*
X0149410Y0016688D01*
X0149558Y0016727D01*
X0149707Y0016763D01*
X0149857Y0016794D01*
X0150008Y0016822D01*
X0150159Y0016846D01*
X0150312Y0016866D01*
X0150464Y0016882D01*
X0150617Y0016894D01*
X0150770Y0016902D01*
X0150923Y0016906D01*
X0151077Y0016906D01*
X0151230Y0016902D01*
X0151383Y0016894D01*
X0151536Y0016882D01*
X0151688Y0016866D01*
X0151841Y0016846D01*
X0151992Y0016822D01*
X0152143Y0016794D01*
X0152293Y0016763D01*
X0152442Y0016727D01*
X0152590Y0016688D01*
X0152737Y0016645D01*
X0152883Y0016598D01*
X0153028Y0016547D01*
X0153171Y0016492D01*
X0153313Y0016434D01*
X0153453Y0016372D01*
X0153592Y0016307D01*
X0153729Y0016238D01*
X0153864Y0016165D01*
X0153997Y0016089D01*
X0154128Y0016009D01*
X0154257Y0015927D01*
X0154384Y0015840D01*
X0154509Y0015751D01*
X0154631Y0015658D01*
X0154750Y0015562D01*
X0154868Y0015463D01*
X0154982Y0015362D01*
X0155094Y0015257D01*
X0155203Y0015149D01*
X0155309Y0015038D01*
X0155413Y0014925D01*
X0155513Y0014809D01*
X0155611Y0014691D01*
X0155705Y0014570D01*
X0155796Y0014447D01*
X0155884Y0014321D01*
X0155968Y0014193D01*
X0156050Y0014063D01*
X0156127Y0013931D01*
X0156202Y0013797D01*
X0156273Y0013661D01*
X0156340Y0013523D01*
X0156404Y0013383D01*
X0156464Y0013242D01*
X0156520Y0013100D01*
X0156573Y0012956D01*
X0156622Y0012810D01*
X0156667Y0012664D01*
X0156708Y0012516D01*
X0156745Y0012368D01*
X0156779Y0012218D01*
X0156809Y0012067D01*
X0156834Y0011916D01*
X0156856Y0011765D01*
X0156874Y0011612D01*
X0156888Y0011460D01*
X0156898Y0011307D01*
X0156904Y0011153D01*
X0156906Y0011000D01*
X0156904Y0010847D01*
X0156898Y0010693D01*
X0156888Y0010540D01*
X0156874Y0010388D01*
X0156856Y0010235D01*
X0156834Y0010084D01*
X0156809Y0009933D01*
X0156779Y0009782D01*
X0156745Y0009632D01*
X0156708Y0009484D01*
X0156667Y0009336D01*
X0156622Y0009190D01*
X0156573Y0009044D01*
X0156520Y0008900D01*
X0156464Y0008758D01*
X0156404Y0008617D01*
X0156340Y0008477D01*
X0156273Y0008339D01*
X0156202Y0008203D01*
X0156127Y0008069D01*
X0156050Y0007937D01*
X0155968Y0007807D01*
X0155884Y0007679D01*
X0155796Y0007553D01*
X0155705Y0007430D01*
X0155611Y0007309D01*
X0155513Y0007191D01*
X0155413Y0007075D01*
X0155309Y0006962D01*
X0155203Y0006851D01*
X0155094Y0006743D01*
X0154982Y0006638D01*
X0154868Y0006537D01*
X0154750Y0006438D01*
X0154631Y0006342D01*
X0154509Y0006249D01*
X0154384Y0006160D01*
X0154257Y0006073D01*
X0154128Y0005991D01*
X0153997Y0005911D01*
X0153864Y0005835D01*
X0153729Y0005762D01*
X0153592Y0005693D01*
X0153453Y0005628D01*
X0153313Y0005566D01*
X0153171Y0005508D01*
X0153028Y0005453D01*
X0152883Y0005402D01*
X0152737Y0005355D01*
X0152590Y0005312D01*
X0152442Y0005273D01*
X0152293Y0005237D01*
X0152143Y0005206D01*
X0151992Y0005178D01*
X0151841Y0005154D01*
X0151688Y0005134D01*
X0151536Y0005118D01*
X0151383Y0005106D01*
X0151230Y0005098D01*
X0151077Y0005094D01*
X0150923Y0005094D01*
X0150770Y0005098D01*
X0150617Y0005106D01*
X0150464Y0005118D01*
X0150312Y0005134D01*
X0150159Y0005154D01*
X0150008Y0005178D01*
X0149857Y0005206D01*
X0149707Y0005237D01*
X0149558Y0005273D01*
X0149410Y0005312D01*
X0149263Y0005355D01*
X0149117Y0005402D01*
X0148972Y0005453D01*
X0148829Y0005508D01*
X0148687Y0005566D01*
X0148547Y0005628D01*
X0148408Y0005693D01*
X0148271Y0005762D01*
X0148136Y0005835D01*
X0148003Y0005911D01*
X0147872Y0005991D01*
X0147743Y0006073D01*
X0147616Y0006160D01*
X0147491Y0006249D01*
X0147369Y0006342D01*
X0147250Y0006438D01*
X0147132Y0006537D01*
X0147018Y0006638D01*
X0146906Y0006743D01*
X0146797Y0006851D01*
X0146691Y0006962D01*
X0146587Y0007075D01*
X0146487Y0007191D01*
X0146389Y0007309D01*
X0146295Y0007430D01*
X0146204Y0007553D01*
X0146116Y0007679D01*
X0146032Y0007807D01*
X0145950Y0007937D01*
X0145873Y0008069D01*
X0145798Y0008203D01*
X0145727Y0008339D01*
X0145660Y0008477D01*
X0145596Y0008617D01*
X0145536Y0008758D01*
X0145480Y0008900D01*
X0145427Y0009044D01*
X0145378Y0009190D01*
X0145333Y0009336D01*
X0145292Y0009484D01*
X0145255Y0009632D01*
X0145221Y0009782D01*
X0145191Y0009933D01*
X0145166Y0010084D01*
X0145144Y0010235D01*
X0145126Y0010388D01*
X0145112Y0010540D01*
X0145102Y0010693D01*
X0145096Y0010847D01*
X0145094Y0011000D01*
X0145094Y0271000D02*
X0145096Y0271153D01*
X0145102Y0271307D01*
X0145112Y0271460D01*
X0145126Y0271612D01*
X0145144Y0271765D01*
X0145166Y0271916D01*
X0145191Y0272067D01*
X0145221Y0272218D01*
X0145255Y0272368D01*
X0145292Y0272516D01*
X0145333Y0272664D01*
X0145378Y0272810D01*
X0145427Y0272956D01*
X0145480Y0273100D01*
X0145536Y0273242D01*
X0145596Y0273383D01*
X0145660Y0273523D01*
X0145727Y0273661D01*
X0145798Y0273797D01*
X0145873Y0273931D01*
X0145950Y0274063D01*
X0146032Y0274193D01*
X0146116Y0274321D01*
X0146204Y0274447D01*
X0146295Y0274570D01*
X0146389Y0274691D01*
X0146487Y0274809D01*
X0146587Y0274925D01*
X0146691Y0275038D01*
X0146797Y0275149D01*
X0146906Y0275257D01*
X0147018Y0275362D01*
X0147132Y0275463D01*
X0147250Y0275562D01*
X0147369Y0275658D01*
X0147491Y0275751D01*
X0147616Y0275840D01*
X0147743Y0275927D01*
X0147872Y0276009D01*
X0148003Y0276089D01*
X0148136Y0276165D01*
X0148271Y0276238D01*
X0148408Y0276307D01*
X0148547Y0276372D01*
X0148687Y0276434D01*
X0148829Y0276492D01*
X0148972Y0276547D01*
X0149117Y0276598D01*
X0149263Y0276645D01*
X0149410Y0276688D01*
X0149558Y0276727D01*
X0149707Y0276763D01*
X0149857Y0276794D01*
X0150008Y0276822D01*
X0150159Y0276846D01*
X0150312Y0276866D01*
X0150464Y0276882D01*
X0150617Y0276894D01*
X0150770Y0276902D01*
X0150923Y0276906D01*
X0151077Y0276906D01*
X0151230Y0276902D01*
X0151383Y0276894D01*
X0151536Y0276882D01*
X0151688Y0276866D01*
X0151841Y0276846D01*
X0151992Y0276822D01*
X0152143Y0276794D01*
X0152293Y0276763D01*
X0152442Y0276727D01*
X0152590Y0276688D01*
X0152737Y0276645D01*
X0152883Y0276598D01*
X0153028Y0276547D01*
X0153171Y0276492D01*
X0153313Y0276434D01*
X0153453Y0276372D01*
X0153592Y0276307D01*
X0153729Y0276238D01*
X0153864Y0276165D01*
X0153997Y0276089D01*
X0154128Y0276009D01*
X0154257Y0275927D01*
X0154384Y0275840D01*
X0154509Y0275751D01*
X0154631Y0275658D01*
X0154750Y0275562D01*
X0154868Y0275463D01*
X0154982Y0275362D01*
X0155094Y0275257D01*
X0155203Y0275149D01*
X0155309Y0275038D01*
X0155413Y0274925D01*
X0155513Y0274809D01*
X0155611Y0274691D01*
X0155705Y0274570D01*
X0155796Y0274447D01*
X0155884Y0274321D01*
X0155968Y0274193D01*
X0156050Y0274063D01*
X0156127Y0273931D01*
X0156202Y0273797D01*
X0156273Y0273661D01*
X0156340Y0273523D01*
X0156404Y0273383D01*
X0156464Y0273242D01*
X0156520Y0273100D01*
X0156573Y0272956D01*
X0156622Y0272810D01*
X0156667Y0272664D01*
X0156708Y0272516D01*
X0156745Y0272368D01*
X0156779Y0272218D01*
X0156809Y0272067D01*
X0156834Y0271916D01*
X0156856Y0271765D01*
X0156874Y0271612D01*
X0156888Y0271460D01*
X0156898Y0271307D01*
X0156904Y0271153D01*
X0156906Y0271000D01*
X0156904Y0270847D01*
X0156898Y0270693D01*
X0156888Y0270540D01*
X0156874Y0270388D01*
X0156856Y0270235D01*
X0156834Y0270084D01*
X0156809Y0269933D01*
X0156779Y0269782D01*
X0156745Y0269632D01*
X0156708Y0269484D01*
X0156667Y0269336D01*
X0156622Y0269190D01*
X0156573Y0269044D01*
X0156520Y0268900D01*
X0156464Y0268758D01*
X0156404Y0268617D01*
X0156340Y0268477D01*
X0156273Y0268339D01*
X0156202Y0268203D01*
X0156127Y0268069D01*
X0156050Y0267937D01*
X0155968Y0267807D01*
X0155884Y0267679D01*
X0155796Y0267553D01*
X0155705Y0267430D01*
X0155611Y0267309D01*
X0155513Y0267191D01*
X0155413Y0267075D01*
X0155309Y0266962D01*
X0155203Y0266851D01*
X0155094Y0266743D01*
X0154982Y0266638D01*
X0154868Y0266537D01*
X0154750Y0266438D01*
X0154631Y0266342D01*
X0154509Y0266249D01*
X0154384Y0266160D01*
X0154257Y0266073D01*
X0154128Y0265991D01*
X0153997Y0265911D01*
X0153864Y0265835D01*
X0153729Y0265762D01*
X0153592Y0265693D01*
X0153453Y0265628D01*
X0153313Y0265566D01*
X0153171Y0265508D01*
X0153028Y0265453D01*
X0152883Y0265402D01*
X0152737Y0265355D01*
X0152590Y0265312D01*
X0152442Y0265273D01*
X0152293Y0265237D01*
X0152143Y0265206D01*
X0151992Y0265178D01*
X0151841Y0265154D01*
X0151688Y0265134D01*
X0151536Y0265118D01*
X0151383Y0265106D01*
X0151230Y0265098D01*
X0151077Y0265094D01*
X0150923Y0265094D01*
X0150770Y0265098D01*
X0150617Y0265106D01*
X0150464Y0265118D01*
X0150312Y0265134D01*
X0150159Y0265154D01*
X0150008Y0265178D01*
X0149857Y0265206D01*
X0149707Y0265237D01*
X0149558Y0265273D01*
X0149410Y0265312D01*
X0149263Y0265355D01*
X0149117Y0265402D01*
X0148972Y0265453D01*
X0148829Y0265508D01*
X0148687Y0265566D01*
X0148547Y0265628D01*
X0148408Y0265693D01*
X0148271Y0265762D01*
X0148136Y0265835D01*
X0148003Y0265911D01*
X0147872Y0265991D01*
X0147743Y0266073D01*
X0147616Y0266160D01*
X0147491Y0266249D01*
X0147369Y0266342D01*
X0147250Y0266438D01*
X0147132Y0266537D01*
X0147018Y0266638D01*
X0146906Y0266743D01*
X0146797Y0266851D01*
X0146691Y0266962D01*
X0146587Y0267075D01*
X0146487Y0267191D01*
X0146389Y0267309D01*
X0146295Y0267430D01*
X0146204Y0267553D01*
X0146116Y0267679D01*
X0146032Y0267807D01*
X0145950Y0267937D01*
X0145873Y0268069D01*
X0145798Y0268203D01*
X0145727Y0268339D01*
X0145660Y0268477D01*
X0145596Y0268617D01*
X0145536Y0268758D01*
X0145480Y0268900D01*
X0145427Y0269044D01*
X0145378Y0269190D01*
X0145333Y0269336D01*
X0145292Y0269484D01*
X0145255Y0269632D01*
X0145221Y0269782D01*
X0145191Y0269933D01*
X0145166Y0270084D01*
X0145144Y0270235D01*
X0145126Y0270388D01*
X0145112Y0270540D01*
X0145102Y0270693D01*
X0145096Y0270847D01*
X0145094Y0271000D01*
X0005094Y0271000D02*
X0005096Y0271153D01*
X0005102Y0271307D01*
X0005112Y0271460D01*
X0005126Y0271612D01*
X0005144Y0271765D01*
X0005166Y0271916D01*
X0005191Y0272067D01*
X0005221Y0272218D01*
X0005255Y0272368D01*
X0005292Y0272516D01*
X0005333Y0272664D01*
X0005378Y0272810D01*
X0005427Y0272956D01*
X0005480Y0273100D01*
X0005536Y0273242D01*
X0005596Y0273383D01*
X0005660Y0273523D01*
X0005727Y0273661D01*
X0005798Y0273797D01*
X0005873Y0273931D01*
X0005950Y0274063D01*
X0006032Y0274193D01*
X0006116Y0274321D01*
X0006204Y0274447D01*
X0006295Y0274570D01*
X0006389Y0274691D01*
X0006487Y0274809D01*
X0006587Y0274925D01*
X0006691Y0275038D01*
X0006797Y0275149D01*
X0006906Y0275257D01*
X0007018Y0275362D01*
X0007132Y0275463D01*
X0007250Y0275562D01*
X0007369Y0275658D01*
X0007491Y0275751D01*
X0007616Y0275840D01*
X0007743Y0275927D01*
X0007872Y0276009D01*
X0008003Y0276089D01*
X0008136Y0276165D01*
X0008271Y0276238D01*
X0008408Y0276307D01*
X0008547Y0276372D01*
X0008687Y0276434D01*
X0008829Y0276492D01*
X0008972Y0276547D01*
X0009117Y0276598D01*
X0009263Y0276645D01*
X0009410Y0276688D01*
X0009558Y0276727D01*
X0009707Y0276763D01*
X0009857Y0276794D01*
X0010008Y0276822D01*
X0010159Y0276846D01*
X0010312Y0276866D01*
X0010464Y0276882D01*
X0010617Y0276894D01*
X0010770Y0276902D01*
X0010923Y0276906D01*
X0011077Y0276906D01*
X0011230Y0276902D01*
X0011383Y0276894D01*
X0011536Y0276882D01*
X0011688Y0276866D01*
X0011841Y0276846D01*
X0011992Y0276822D01*
X0012143Y0276794D01*
X0012293Y0276763D01*
X0012442Y0276727D01*
X0012590Y0276688D01*
X0012737Y0276645D01*
X0012883Y0276598D01*
X0013028Y0276547D01*
X0013171Y0276492D01*
X0013313Y0276434D01*
X0013453Y0276372D01*
X0013592Y0276307D01*
X0013729Y0276238D01*
X0013864Y0276165D01*
X0013997Y0276089D01*
X0014128Y0276009D01*
X0014257Y0275927D01*
X0014384Y0275840D01*
X0014509Y0275751D01*
X0014631Y0275658D01*
X0014750Y0275562D01*
X0014868Y0275463D01*
X0014982Y0275362D01*
X0015094Y0275257D01*
X0015203Y0275149D01*
X0015309Y0275038D01*
X0015413Y0274925D01*
X0015513Y0274809D01*
X0015611Y0274691D01*
X0015705Y0274570D01*
X0015796Y0274447D01*
X0015884Y0274321D01*
X0015968Y0274193D01*
X0016050Y0274063D01*
X0016127Y0273931D01*
X0016202Y0273797D01*
X0016273Y0273661D01*
X0016340Y0273523D01*
X0016404Y0273383D01*
X0016464Y0273242D01*
X0016520Y0273100D01*
X0016573Y0272956D01*
X0016622Y0272810D01*
X0016667Y0272664D01*
X0016708Y0272516D01*
X0016745Y0272368D01*
X0016779Y0272218D01*
X0016809Y0272067D01*
X0016834Y0271916D01*
X0016856Y0271765D01*
X0016874Y0271612D01*
X0016888Y0271460D01*
X0016898Y0271307D01*
X0016904Y0271153D01*
X0016906Y0271000D01*
X0016904Y0270847D01*
X0016898Y0270693D01*
X0016888Y0270540D01*
X0016874Y0270388D01*
X0016856Y0270235D01*
X0016834Y0270084D01*
X0016809Y0269933D01*
X0016779Y0269782D01*
X0016745Y0269632D01*
X0016708Y0269484D01*
X0016667Y0269336D01*
X0016622Y0269190D01*
X0016573Y0269044D01*
X0016520Y0268900D01*
X0016464Y0268758D01*
X0016404Y0268617D01*
X0016340Y0268477D01*
X0016273Y0268339D01*
X0016202Y0268203D01*
X0016127Y0268069D01*
X0016050Y0267937D01*
X0015968Y0267807D01*
X0015884Y0267679D01*
X0015796Y0267553D01*
X0015705Y0267430D01*
X0015611Y0267309D01*
X0015513Y0267191D01*
X0015413Y0267075D01*
X0015309Y0266962D01*
X0015203Y0266851D01*
X0015094Y0266743D01*
X0014982Y0266638D01*
X0014868Y0266537D01*
X0014750Y0266438D01*
X0014631Y0266342D01*
X0014509Y0266249D01*
X0014384Y0266160D01*
X0014257Y0266073D01*
X0014128Y0265991D01*
X0013997Y0265911D01*
X0013864Y0265835D01*
X0013729Y0265762D01*
X0013592Y0265693D01*
X0013453Y0265628D01*
X0013313Y0265566D01*
X0013171Y0265508D01*
X0013028Y0265453D01*
X0012883Y0265402D01*
X0012737Y0265355D01*
X0012590Y0265312D01*
X0012442Y0265273D01*
X0012293Y0265237D01*
X0012143Y0265206D01*
X0011992Y0265178D01*
X0011841Y0265154D01*
X0011688Y0265134D01*
X0011536Y0265118D01*
X0011383Y0265106D01*
X0011230Y0265098D01*
X0011077Y0265094D01*
X0010923Y0265094D01*
X0010770Y0265098D01*
X0010617Y0265106D01*
X0010464Y0265118D01*
X0010312Y0265134D01*
X0010159Y0265154D01*
X0010008Y0265178D01*
X0009857Y0265206D01*
X0009707Y0265237D01*
X0009558Y0265273D01*
X0009410Y0265312D01*
X0009263Y0265355D01*
X0009117Y0265402D01*
X0008972Y0265453D01*
X0008829Y0265508D01*
X0008687Y0265566D01*
X0008547Y0265628D01*
X0008408Y0265693D01*
X0008271Y0265762D01*
X0008136Y0265835D01*
X0008003Y0265911D01*
X0007872Y0265991D01*
X0007743Y0266073D01*
X0007616Y0266160D01*
X0007491Y0266249D01*
X0007369Y0266342D01*
X0007250Y0266438D01*
X0007132Y0266537D01*
X0007018Y0266638D01*
X0006906Y0266743D01*
X0006797Y0266851D01*
X0006691Y0266962D01*
X0006587Y0267075D01*
X0006487Y0267191D01*
X0006389Y0267309D01*
X0006295Y0267430D01*
X0006204Y0267553D01*
X0006116Y0267679D01*
X0006032Y0267807D01*
X0005950Y0267937D01*
X0005873Y0268069D01*
X0005798Y0268203D01*
X0005727Y0268339D01*
X0005660Y0268477D01*
X0005596Y0268617D01*
X0005536Y0268758D01*
X0005480Y0268900D01*
X0005427Y0269044D01*
X0005378Y0269190D01*
X0005333Y0269336D01*
X0005292Y0269484D01*
X0005255Y0269632D01*
X0005221Y0269782D01*
X0005191Y0269933D01*
X0005166Y0270084D01*
X0005144Y0270235D01*
X0005126Y0270388D01*
X0005112Y0270540D01*
X0005102Y0270693D01*
X0005096Y0270847D01*
X0005094Y0271000D01*
D11*
X0011000Y0271000D03*
X0151000Y0271000D03*
X0151000Y0011000D03*
X0011000Y0011000D03*
D12*
X0081000Y0014000D02*
X0081000Y0008000D01*
X0091000Y0008000D02*
X0091000Y0014000D01*
X0148000Y0141000D02*
X0154000Y0141000D01*
X0154000Y0151000D02*
X0148000Y0151000D01*
X0148000Y0161000D02*
X0154000Y0161000D01*
X0154000Y0171000D02*
X0148000Y0171000D01*
X0148000Y0181000D02*
X0154000Y0181000D01*
X0111000Y0268000D02*
X0111000Y0274000D01*
X0101000Y0274000D02*
X0101000Y0268000D01*
X0091000Y0268000D02*
X0091000Y0274000D01*
X0081000Y0274000D02*
X0081000Y0268000D01*
X0071000Y0268000D02*
X0071000Y0274000D01*
X0061000Y0274000D02*
X0061000Y0268000D01*
X0014000Y0181000D02*
X0008000Y0181000D01*
X0008000Y0171000D02*
X0014000Y0171000D01*
X0014000Y0161000D02*
X0008000Y0161000D01*
X0008000Y0151000D02*
X0014000Y0151000D01*
X0014000Y0141000D02*
X0008000Y0141000D01*
D13*
X0021000Y0131000D03*
X0021000Y0121000D03*
X0036000Y0111000D03*
X0041000Y0118500D03*
X0046000Y0111000D03*
X0041000Y0098500D03*
X0036000Y0091000D03*
X0041000Y0078500D03*
X0036000Y0071000D03*
X0046000Y0071000D03*
X0046000Y0091000D03*
X0061000Y0081000D03*
X0061000Y0071000D03*
X0066000Y0058500D03*
X0061000Y0051000D03*
X0071000Y0051000D03*
X0071000Y0031000D03*
X0061000Y0031000D03*
X0051000Y0031000D03*
X0051000Y0041000D03*
X0076000Y0071000D03*
X0081000Y0078500D03*
X0086000Y0071000D03*
X0086000Y0091000D03*
X0081000Y0098500D03*
X0076000Y0091000D03*
X0076000Y0111000D03*
X0081000Y0118500D03*
X0086000Y0111000D03*
X0086000Y0131000D03*
X0081000Y0138500D03*
X0076000Y0131000D03*
X0061000Y0131000D03*
X0061000Y0141000D03*
X0046000Y0131000D03*
X0041000Y0138500D03*
X0036000Y0131000D03*
X0036000Y0151000D03*
X0041000Y0158500D03*
X0046000Y0151000D03*
X0046000Y0171000D03*
X0041000Y0178500D03*
X0036000Y0171000D03*
X0046000Y0196000D03*
X0038500Y0201000D03*
X0046000Y0206000D03*
X0046000Y0216000D03*
X0056000Y0216000D03*
X0058500Y0201000D03*
X0066000Y0196000D03*
X0066000Y0206000D03*
X0078500Y0201000D03*
X0086000Y0196000D03*
X0086000Y0206000D03*
X0081000Y0216000D03*
X0091000Y0216000D03*
X0098500Y0201000D03*
X0106000Y0196000D03*
X0106000Y0206000D03*
X0118500Y0201000D03*
X0126000Y0196000D03*
X0126000Y0206000D03*
X0126000Y0181000D03*
X0126000Y0171000D03*
X0126000Y0161000D03*
X0126000Y0151000D03*
X0126000Y0141000D03*
X0126000Y0131000D03*
X0126000Y0121000D03*
X0126000Y0111000D03*
X0111000Y0111000D03*
X0106000Y0118500D03*
X0101000Y0111000D03*
X0101000Y0101000D03*
X0101000Y0091000D03*
X0106000Y0078500D03*
X0101000Y0071000D03*
X0106000Y0058500D03*
X0101000Y0051000D03*
X0111000Y0051000D03*
X0111000Y0031000D03*
X0101000Y0031000D03*
X0091000Y0031000D03*
X0091000Y0041000D03*
X0111000Y0071000D03*
X0126000Y0071000D03*
X0126000Y0081000D03*
X0148500Y0121000D03*
X0148500Y0131000D03*
X0111000Y0131000D03*
X0106000Y0138500D03*
X0101000Y0131000D03*
X0101000Y0151000D03*
X0106000Y0158500D03*
X0111000Y0151000D03*
X0111000Y0171000D03*
X0106000Y0178500D03*
X0101000Y0171000D03*
X0086000Y0171000D03*
X0081000Y0178500D03*
X0076000Y0171000D03*
X0061000Y0171000D03*
X0061000Y0181000D03*
X0061000Y0231000D03*
X0051000Y0231000D03*
X0041000Y0231000D03*
X0041000Y0241000D03*
X0031000Y0246000D03*
X0031000Y0256000D03*
X0031000Y0271000D03*
X0041000Y0271000D03*
X0051000Y0251000D03*
X0056000Y0258500D03*
X0061000Y0251000D03*
X0071000Y0241000D03*
X0071000Y0231000D03*
X0081000Y0231000D03*
X0091000Y0231000D03*
X0101000Y0231000D03*
X0101000Y0241000D03*
X0111000Y0231000D03*
X0121000Y0231000D03*
X0121000Y0251000D03*
X0116000Y0258500D03*
X0111000Y0251000D03*
X0091000Y0251000D03*
X0086000Y0258500D03*
X0081000Y0251000D03*
D14*
X0128500Y0037250D03*
D15*
X0142260Y0218500D03*
X0142260Y0229750D03*
X0142260Y0241000D03*
X0149740Y0241000D03*
X0149740Y0229750D03*
X0149740Y0218500D03*
X0018490Y0193500D03*
X0011010Y0193500D03*
M02*
