%
M48
M72
T01C0.02362
T02C0.03200
T03C0.04000
T04C0.11811
%
T01
X53500Y118500
X53500Y124750
X66000Y163500
X88500Y148500
X106000Y213500
X127250Y221000
X137250Y209750
X142250Y201000
X137250Y191000
X119750Y264750
X63500Y216000
X42250Y187250
X33500Y188500
X28500Y122250
X76000Y41000
T02
X71000Y31000
X61000Y31000
X51000Y31000
X51000Y41000
X61000Y51000
X66000Y58500
X71000Y51000
X76000Y71000
X81000Y78500
X86000Y71000
X86000Y91000
X81000Y98500
X76000Y91000
X76000Y111000
X81000Y118500
X86000Y111000
X86000Y131000
X81000Y138500
X76000Y131000
X61000Y131000
X61000Y141000
X46000Y131000
X41000Y138500
X36000Y131000
X41000Y118500
X36000Y111000
X41000Y98500
X36000Y91000
X41000Y78500
X36000Y71000
X46000Y71000
X46000Y91000
X46000Y111000
X61000Y81000
X61000Y71000
X91000Y41000
X91000Y31000
X101000Y31000
X111000Y31000
X111000Y51000
X106000Y58500
X101000Y51000
X101000Y71000
X106000Y78500
X111000Y71000
X101000Y91000
X101000Y101000
X101000Y111000
X106000Y118500
X111000Y111000
X111000Y131000
X106000Y138500
X101000Y131000
X101000Y151000
X106000Y158500
X111000Y151000
X111000Y171000
X106000Y178500
X101000Y171000
X86000Y171000
X81000Y178500
X76000Y171000
X61000Y171000
X61000Y181000
X66000Y196000
X58500Y201000
X66000Y206000
X56000Y216000
X46000Y216000
X46000Y206000
X38500Y201000
X46000Y196000
X41000Y178500
X36000Y171000
X41000Y158500
X36000Y151000
X46000Y151000
X46000Y171000
X21000Y131000
X21000Y121000
X78500Y201000
X86000Y196000
X86000Y206000
X81000Y216000
X91000Y216000
X98500Y201000
X106000Y196000
X106000Y206000
X118500Y201000
X126000Y196000
X126000Y206000
X126000Y181000
X126000Y171000
X126000Y161000
X126000Y151000
X126000Y141000
X126000Y131000
X126000Y121000
X126000Y111000
X126000Y81000
X126000Y71000
X148500Y121000
X148500Y131000
X121000Y231000
X111000Y231000
X101000Y231000
X101000Y241000
X91000Y231000
X81000Y231000
X71000Y231000
X71000Y241000
X61000Y231000
X51000Y231000
X41000Y231000
X41000Y241000
X31000Y246000
X31000Y256000
X31000Y271000
X41000Y271000
X51000Y251000
X56000Y258500
X61000Y251000
X81000Y251000
X86000Y258500
X91000Y251000
X111000Y251000
X116000Y258500
X121000Y251000
T03
X111000Y271000
X101000Y271000
X91000Y271000
X81000Y271000
X71000Y271000
X61000Y271000
X11000Y181000
X11000Y171000
X11000Y161000
X11000Y151000
X11000Y141000
X81000Y11000
X91000Y11000
X151000Y141000
X151000Y151000
X151000Y161000
X151000Y171000
X151000Y181000
T04
X11000Y11000
X151000Y11000
X151000Y271000
X11000Y271000
M30
