G75*
%MOIN*%
%OFA0B0*%
%FSLAX25Y25*%
%IPPOS*%
%LPD*%
%AMOC8*
5,1,8,0,0,1.08239X$1,22.5*
%
%ADD10C,0.12211*%
%ADD11C,0.06400*%
%ADD12OC8,0.05600*%
D10*
X0011000Y0011000D03*
X0151000Y0011000D03*
X0151000Y0271000D03*
X0011000Y0271000D03*
D11*
X0061000Y0268000D02*
X0061000Y0274000D01*
X0071000Y0274000D02*
X0071000Y0268000D01*
X0081000Y0268000D02*
X0081000Y0274000D01*
X0091000Y0274000D02*
X0091000Y0268000D01*
X0101000Y0268000D02*
X0101000Y0274000D01*
X0111000Y0274000D02*
X0111000Y0268000D01*
X0148000Y0181000D02*
X0154000Y0181000D01*
X0154000Y0171000D02*
X0148000Y0171000D01*
X0148000Y0161000D02*
X0154000Y0161000D01*
X0154000Y0151000D02*
X0148000Y0151000D01*
X0148000Y0141000D02*
X0154000Y0141000D01*
X0091000Y0014000D02*
X0091000Y0008000D01*
X0081000Y0008000D02*
X0081000Y0014000D01*
X0014000Y0141000D02*
X0008000Y0141000D01*
X0008000Y0151000D02*
X0014000Y0151000D01*
X0014000Y0161000D02*
X0008000Y0161000D01*
X0008000Y0171000D02*
X0014000Y0171000D01*
X0014000Y0181000D02*
X0008000Y0181000D01*
D12*
X0036000Y0171000D03*
X0041000Y0178500D03*
X0046000Y0171000D03*
X0041000Y0158500D03*
X0036000Y0151000D03*
X0041000Y0138500D03*
X0036000Y0131000D03*
X0041000Y0118500D03*
X0036000Y0111000D03*
X0041000Y0098500D03*
X0036000Y0091000D03*
X0041000Y0078500D03*
X0036000Y0071000D03*
X0046000Y0071000D03*
X0046000Y0091000D03*
X0046000Y0111000D03*
X0046000Y0131000D03*
X0046000Y0151000D03*
X0061000Y0141000D03*
X0061000Y0131000D03*
X0076000Y0131000D03*
X0081000Y0138500D03*
X0086000Y0131000D03*
X0081000Y0118500D03*
X0076000Y0111000D03*
X0081000Y0098500D03*
X0076000Y0091000D03*
X0081000Y0078500D03*
X0076000Y0071000D03*
X0086000Y0071000D03*
X0086000Y0091000D03*
X0086000Y0111000D03*
X0101000Y0111000D03*
X0106000Y0118500D03*
X0111000Y0111000D03*
X0101000Y0101000D03*
X0101000Y0091000D03*
X0106000Y0078500D03*
X0101000Y0071000D03*
X0106000Y0058500D03*
X0101000Y0051000D03*
X0111000Y0051000D03*
X0111000Y0031000D03*
X0101000Y0031000D03*
X0091000Y0031000D03*
X0091000Y0041000D03*
X0071000Y0031000D03*
X0061000Y0031000D03*
X0051000Y0031000D03*
X0051000Y0041000D03*
X0061000Y0051000D03*
X0066000Y0058500D03*
X0071000Y0051000D03*
X0061000Y0071000D03*
X0061000Y0081000D03*
X0021000Y0121000D03*
X0021000Y0131000D03*
X0046000Y0196000D03*
X0038500Y0201000D03*
X0046000Y0206000D03*
X0046000Y0216000D03*
X0056000Y0216000D03*
X0058500Y0201000D03*
X0066000Y0196000D03*
X0066000Y0206000D03*
X0078500Y0201000D03*
X0086000Y0196000D03*
X0086000Y0206000D03*
X0081000Y0216000D03*
X0091000Y0216000D03*
X0098500Y0201000D03*
X0106000Y0196000D03*
X0106000Y0206000D03*
X0118500Y0201000D03*
X0126000Y0196000D03*
X0126000Y0206000D03*
X0126000Y0181000D03*
X0126000Y0171000D03*
X0126000Y0161000D03*
X0126000Y0151000D03*
X0126000Y0141000D03*
X0126000Y0131000D03*
X0126000Y0121000D03*
X0126000Y0111000D03*
X0111000Y0131000D03*
X0106000Y0138500D03*
X0101000Y0131000D03*
X0101000Y0151000D03*
X0106000Y0158500D03*
X0111000Y0151000D03*
X0111000Y0171000D03*
X0106000Y0178500D03*
X0101000Y0171000D03*
X0086000Y0171000D03*
X0081000Y0178500D03*
X0076000Y0171000D03*
X0061000Y0171000D03*
X0061000Y0181000D03*
X0061000Y0231000D03*
X0051000Y0231000D03*
X0041000Y0231000D03*
X0041000Y0241000D03*
X0031000Y0246000D03*
X0031000Y0256000D03*
X0031000Y0271000D03*
X0041000Y0271000D03*
X0051000Y0251000D03*
X0056000Y0258500D03*
X0061000Y0251000D03*
X0071000Y0241000D03*
X0071000Y0231000D03*
X0081000Y0231000D03*
X0091000Y0231000D03*
X0101000Y0231000D03*
X0101000Y0241000D03*
X0111000Y0231000D03*
X0121000Y0231000D03*
X0121000Y0251000D03*
X0116000Y0258500D03*
X0111000Y0251000D03*
X0091000Y0251000D03*
X0086000Y0258500D03*
X0081000Y0251000D03*
X0148500Y0131000D03*
X0148500Y0121000D03*
X0126000Y0081000D03*
X0126000Y0071000D03*
X0111000Y0071000D03*
M02*
